#!OML:ASF F:\VICON\USERDATA\INSTALL\rory3\rory3.ASF
:FULLY-SPECIFIED
:DEGREES
62
root 0.4221306911286984 18.02250640445094 28.539979825079357 2.5529776943230553 5.596119758632046 1.4254505258312227
lfemur -0.2404963675685341 -6.06806626327941 -23.334284879487985
ltibia 34.36270056853088
lfoot 32.919240640332696 -16.65123391579172
ltoes -1.6592791156280082
rfemur -28.004858041552346 -0.10864426779312764 23.4343324231425
rtibia 29.895606679932524
rfoot 4.114076067491428 -14.208974204754945
rtoes -2.175084504951343
lowerback 12.449574110503896 -2.137493934306898 0.14541848412683334
upperback -0.9459124024668426 -2.4715097866030655 2.2156035410457036
thorax -6.63755132457478 -1.1440035648795903 3.1433668332351674
lowerneck -17.820602486904352 -2.9531298703154434 -3.0641278326312404
upperneck 19.20303247208687 -3.38058174908728 2.2809268582602673
head 8.987074722281768 -1.5736268446529271 0.8189669543105722
lclavicle -1.6759097102436942e-15 -3.59238528304823e-15
lhumerus -41.38541765600796 -8.202684466796716 88.20941200675037
lradius 75.54634718828825
lwrist 15.782691875768023
lhand -28.062574099130515 12.638498633059715
lfingers 7.125019999999999
lthumb -0.6877337642285903 42.749295112387465
rclavicle -1.676397351895949e-15 -3.592724476391517e-15
rhumerus -42.281357483502205 -6.273026900657544 -86.44266212942784
rradius 59.472687544096146
rwrist -1.8329542653171127
rhand -16.468722836437596 28.438901818624977
rfingers 7.125019999999999
rthumb 9.576993848015732 0.42227399151189315
63
root 0.43534136871663764 18.198008017605677 29.53808886430229 2.3565507741721383 6.296131769133742 1.1838200845670341
lfemur -1.2432714898989836 -6.045776735406605 -23.45970474373786
ltibia 36.39130692094712
lfoot 36.13213524591032 -19.75265297646572
ltoes -2.8495381090244787
rfemur -26.826472183790735 -0.37077172515200685 24.102309786958262
rtibia 24.760906244572688
rfoot 4.775816367189336 -11.907704900637757
rtoes -2.3741909688526324
lowerback 11.984716258593787 -2.256700013993131 0.3938858285160305
upperback -0.8521629279065288 -2.7288144035326454 2.1931556639603853
thorax -6.259187793927161 -1.2918819312071959 2.9915424954749037
lowerneck -17.777659761260356 -2.9571062897759823 -3.2368406878552585
upperneck 19.37318373982753 -3.3538469527828134 2.417997090439526
head 9.007417882915464 -1.5817409186263864 0.9189471392042936
lclavicle -1.677089153529903e-15 -3.5932314244496e-15
lhumerus -41.55415498495437 -8.154308218219512 88.19019363583605
lradius 76.91852180760002
lwrist 15.447194000173667
lhand -27.592830862852075 12.747128650808351
lfingers 7.125019999999999
lthumb -0.40484724244926173 42.93759647522532
rclavicle -1.6759612949988594e-15 -3.592416124620642e-15
rhumerus -42.81291194587876 -6.971094070440661 -85.49103801611727
rradius 59.62570311740912
rwrist -1.0104536147116474
rhand -16.323738399639254 28.456059449185474
rfingers 7.125019999999999
rthumb 9.745496166496808 0.9575495598237658
64
root 0.4707601393538101 18.31987866583437 30.50786896915949 2.780866974035823 6.2642709412749475 1.075514623819946
lfemur -2.328803203986979 -5.569944741212827 -23.81164413039051
ltibia 37.95239372428623
lfoot 33.78410722902359 -21.08374596391296
ltoes -5.359829273894425
rfemur -26.09355570600615 -0.2168504225220338 24.82496760906484
rtibia 22.261082517905432
rfoot 6.490412844254949 -9.176201069215708
rtoes -1.5830740405344281
lowerback 11.125418143966426 -2.1806272394012103 0.3415058032679976
upperback -0.9549649678787131 -2.704291172289409 2.0645476201746185
thorax -5.811083006110953 -1.263919451339363 2.887644957982064
lowerneck -17.73629676376128 -2.944304196395118 -3.326013271038521
upperneck 19.46129266145842 -3.3444268402240156 2.4894593167521375
head 9.0478551752033 -1.5843051044113468 0.9731430801932355
lclavicle -1.673563032880084e-15 -3.590738733929182e-15
lhumerus -41.78896485827322 -8.217886115865 88.30004033483326
lradius 78.30008025556619
lwrist 16.30517987241418
lhand -27.342287722874048 12.503906024721026
lfingers 7.125019999999999
lthumb -0.5925752055602507 42.49298930871986
rclavicle -1.6733360063143598e-15 -3.590559841587049e-15
rhumerus -43.268879432716034 -7.452264034969039 -85.18366488874847
rradius 60.3326752501005
rwrist -0.5445028278434387
rhand -16.151063145610426 28.53954833203944
rfingers 7.125019999999999
rthumb 9.824084441130731 1.285744378014733
65
root 0.4782241915783362 18.418062625047213 31.036218647803096 3.0077566028016784 6.095802059227204 1.186456834853126
lfemur -2.6693596124660246 -5.184742513106209 -24.17732234281189
ltibia 37.81773826867544
lfoot 29.946842260095444 -20.98358837540922
ltoes -6.950376171042095
rfemur -25.32591229048894 -0.31754222221846673 25.286715107707593
rtibia 21.866151039169726
rfoot 7.793068215254292 -6.732729697700953
rtoes -0.9895062686693263
lowerback 10.855007071355008 -2.0828204041505853 0.032119222339506814
upperback -1.1650370467716555 -2.7331553477629704 1.8752376937668291
thorax -5.8882537244243185 -1.2533320983654892 2.923378141601905
lowerneck -17.52140587579031 -2.9129252167518143 -3.3556872238475934
upperneck 19.151088766935835 -3.2682595232905354 2.3920195251567753
head 8.852708276128029 -1.546635988689476 0.9760668328173621
lclavicle -1.6716449622225172e-15 -3.589381600563488e-15
lhumerus -42.035317792261665 -8.068678695402408 88.45093251963186
lradius 79.17417741873875
lwrist 17.603871508269332
lhand -27.488727370209332 12.224401522582578
lfingers 7.125019999999999
lthumb -0.8173472817791101 42.3142258987447
rclavicle -1.6749987319362388e-15 -3.5917355785980035e-15
rhumerus -43.45147447259708 -7.480277674644222 -85.1739951850478
rradius 61.03280502765741
rwrist -1.0078037555181365
rhand -16.170910647966515 28.46369003715071
rfingers 7.125019999999999
rthumb 9.665540767247736 1.5649946609900784
